<?xml version="1.0" encoding="UTF-8" standalone="no"?>
<!DOCTYPE svg PUBLIC "-//W3C//DTD SVG 1.1//EN"
 "http://www.w3.org/Graphics/SVG/1.1/DTD/svg11.dtd">
<!-- Generated by graphviz version 2.38.0 (20140413.2041)
 -->
<!-- Title: snakemake_dag Pages: 1 -->
<svg width="367pt" height="836pt"
 viewBox="0.00 0.00 367.00 836.00" xmlns="http://www.w3.org/2000/svg" xmlns:xlink="http://www.w3.org/1999/xlink">
<g id="graph0" class="graph" transform="scale(1 1) rotate(0) translate(4 832)">
<title>snakemake_dag</title>
<polygon fill="white" stroke="none" points="-4,4 -4,-832 363,-832 363,4 -4,4"/>
<!-- 0 -->
<g id="node1" class="node"><title>0</title>
<path fill="none" stroke="#d85656" stroke-width="2" stroke-dasharray="5,2" d="M245.5,-540C245.5,-540 215.5,-540 215.5,-540 209.5,-540 203.5,-534 203.5,-528 203.5,-528 203.5,-516 203.5,-516 203.5,-510 209.5,-504 215.5,-504 215.5,-504 245.5,-504 245.5,-504 251.5,-504 257.5,-510 257.5,-516 257.5,-516 257.5,-528 257.5,-528 257.5,-534 251.5,-540 245.5,-540"/>
<text text-anchor="middle" x="230.5" y="-519.5" font-family="sans" font-size="10.00">realign</text>
</g>
<!-- 4 -->
<g id="node5" class="node"><title>4</title>
<path fill="none" stroke="#56d8a9" stroke-width="2" stroke-dasharray="5,2" d="M200.5,-468C200.5,-468 170.5,-468 170.5,-468 164.5,-468 158.5,-462 158.5,-456 158.5,-456 158.5,-444 158.5,-444 158.5,-438 164.5,-432 170.5,-432 170.5,-432 200.5,-432 200.5,-432 206.5,-432 212.5,-438 212.5,-444 212.5,-444 212.5,-456 212.5,-456 212.5,-462 206.5,-468 200.5,-468"/>
<text text-anchor="middle" x="185.5" y="-447.5" font-family="sans" font-size="10.00">split</text>
</g>
<!-- 0&#45;&gt;4 -->
<g id="edge5" class="edge"><title>0&#45;&gt;4</title>
<path fill="none" stroke="grey" stroke-width="2" d="M219.376,-503.697C214.145,-495.559 207.8,-485.689 202.022,-476.701"/>
<polygon fill="grey" stroke="grey" stroke-width="2" points="204.847,-474.623 196.496,-468.104 198.959,-478.409 204.847,-474.623"/>
</g>
<!-- 1 -->
<g id="node2" class="node"><title>1</title>
<path fill="none" stroke="#d8ac56" stroke-width="2" stroke-dasharray="5,2" d="M222.5,-36C222.5,-36 192.5,-36 192.5,-36 186.5,-36 180.5,-30 180.5,-24 180.5,-24 180.5,-12 180.5,-12 180.5,-6 186.5,-0 192.5,-0 192.5,-0 222.5,-0 222.5,-0 228.5,-0 234.5,-6 234.5,-12 234.5,-12 234.5,-24 234.5,-24 234.5,-30 228.5,-36 222.5,-36"/>
<text text-anchor="middle" x="207.5" y="-15.5" font-family="sans" font-size="10.00">all</text>
</g>
<!-- 2 -->
<g id="node3" class="node"><title>2</title>
<path fill="none" stroke="#56a9d8" stroke-width="2" stroke-dasharray="5,2" d="M229.5,-108C229.5,-108 185.5,-108 185.5,-108 179.5,-108 173.5,-102 173.5,-96 173.5,-96 173.5,-84 173.5,-84 173.5,-78 179.5,-72 185.5,-72 185.5,-72 229.5,-72 229.5,-72 235.5,-72 241.5,-78 241.5,-84 241.5,-84 241.5,-96 241.5,-96 241.5,-102 235.5,-108 229.5,-108"/>
<text text-anchor="middle" x="207.5" y="-87.5" font-family="sans" font-size="10.00">consensus</text>
</g>
<!-- 2&#45;&gt;1 -->
<g id="edge2" class="edge"><title>2&#45;&gt;1</title>
<path fill="none" stroke="grey" stroke-width="2" d="M207.5,-71.6966C207.5,-63.9827 207.5,-54.7125 207.5,-46.1124"/>
<polygon fill="grey" stroke="grey" stroke-width="2" points="211,-46.1043 207.5,-36.1043 204,-46.1044 211,-46.1043"/>
</g>
<!-- 3 -->
<g id="node4" class="node"><title>3</title>
<path fill="none" stroke="#59d856" stroke-width="2" stroke-dasharray="5,2" d="M217,-324C217,-324 12,-324 12,-324 6,-324 -1.42109e-14,-318 -1.42109e-14,-312 -1.42109e-14,-312 -1.42109e-14,-300 -1.42109e-14,-300 -1.42109e-14,-294 6,-288 12,-288 12,-288 217,-288 217,-288 223,-288 229,-294 229,-300 229,-300 229,-312 229,-312 229,-318 223,-324 217,-324"/>
<text text-anchor="middle" x="114.5" y="-309" font-family="sans" font-size="10.00">align</text>
<text text-anchor="middle" x="114.5" y="-298" font-family="sans" font-size="10.00">genomes: H37Rv+CDC1551+W&#45;148+Beijing</text>
</g>
<!-- 10 -->
<g id="node11" class="node"><title>10</title>
<path fill="none" stroke="#d85656" stroke-width="2" stroke-dasharray="5,2" d="M173.5,-252C173.5,-252 143.5,-252 143.5,-252 137.5,-252 131.5,-246 131.5,-240 131.5,-240 131.5,-228 131.5,-228 131.5,-222 137.5,-216 143.5,-216 143.5,-216 173.5,-216 173.5,-216 179.5,-216 185.5,-222 185.5,-228 185.5,-228 185.5,-240 185.5,-240 185.5,-246 179.5,-252 173.5,-252"/>
<text text-anchor="middle" x="158.5" y="-231.5" font-family="sans" font-size="10.00">realign</text>
</g>
<!-- 3&#45;&gt;10 -->
<g id="edge13" class="edge"><title>3&#45;&gt;10</title>
<path fill="none" stroke="grey" stroke-width="2" d="M125.376,-287.697C130.492,-279.559 136.695,-269.689 142.345,-260.701"/>
<polygon fill="grey" stroke="grey" stroke-width="2" points="145.39,-262.433 147.749,-252.104 139.464,-258.708 145.39,-262.433"/>
</g>
<!-- 9 -->
<g id="node10" class="node"><title>9</title>
<path fill="none" stroke="#56a9d8" stroke-width="2" stroke-dasharray="5,2" d="M207.5,-396C207.5,-396 163.5,-396 163.5,-396 157.5,-396 151.5,-390 151.5,-384 151.5,-384 151.5,-372 151.5,-372 151.5,-366 157.5,-360 163.5,-360 163.5,-360 207.5,-360 207.5,-360 213.5,-360 219.5,-366 219.5,-372 219.5,-372 219.5,-384 219.5,-384 219.5,-390 213.5,-396 207.5,-396"/>
<text text-anchor="middle" x="185.5" y="-375.5" font-family="sans" font-size="10.00">consensus</text>
</g>
<!-- 4&#45;&gt;9 -->
<g id="edge12" class="edge"><title>4&#45;&gt;9</title>
<path fill="none" stroke="grey" stroke-width="2" d="M185.5,-431.697C185.5,-423.983 185.5,-414.712 185.5,-406.112"/>
<polygon fill="grey" stroke="grey" stroke-width="2" points="189,-406.104 185.5,-396.104 182,-406.104 189,-406.104"/>
</g>
<!-- 5 -->
<g id="node6" class="node"><title>5</title>
<path fill="none" stroke="#59d856" stroke-width="2" stroke-dasharray="5,2" d="M347,-612C347,-612 182,-612 182,-612 176,-612 170,-606 170,-600 170,-600 170,-588 170,-588 170,-582 176,-576 182,-576 182,-576 347,-576 347,-576 353,-576 359,-582 359,-588 359,-588 359,-600 359,-600 359,-606 353,-612 347,-612"/>
<text text-anchor="middle" x="264.5" y="-597" font-family="sans" font-size="10.00">align</text>
<text text-anchor="middle" x="264.5" y="-586" font-family="sans" font-size="10.00">genomes: H37Rv+CDC1551+W&#45;148</text>
</g>
<!-- 5&#45;&gt;0 -->
<g id="edge1" class="edge"><title>5&#45;&gt;0</title>
<path fill="none" stroke="grey" stroke-width="2" d="M256.096,-575.697C252.225,-567.728 247.548,-558.1 243.257,-549.264"/>
<polygon fill="grey" stroke="grey" stroke-width="2" points="246.325,-547.57 238.808,-540.104 240.029,-550.629 246.325,-547.57"/>
</g>
<!-- 6 -->
<g id="node7" class="node"><title>6</title>
<path fill="none" stroke="#56a9d8" stroke-width="2" stroke-dasharray="5,2" d="M224.5,-684C224.5,-684 180.5,-684 180.5,-684 174.5,-684 168.5,-678 168.5,-672 168.5,-672 168.5,-660 168.5,-660 168.5,-654 174.5,-648 180.5,-648 180.5,-648 224.5,-648 224.5,-648 230.5,-648 236.5,-654 236.5,-660 236.5,-660 236.5,-672 236.5,-672 236.5,-678 230.5,-684 224.5,-684"/>
<text text-anchor="middle" x="202.5" y="-663.5" font-family="sans" font-size="10.00">consensus</text>
</g>
<!-- 6&#45;&gt;4 -->
<g id="edge6" class="edge"><title>6&#45;&gt;4</title>
<path fill="none" stroke="grey" stroke-width="2" d="M183.896,-647.756C174.969,-638.198 165.21,-625.527 160.5,-612 144.653,-566.487 160.972,-510.243 173.662,-477.711"/>
<polygon fill="grey" stroke="grey" stroke-width="2" points="176.918,-478.996 177.444,-468.414 170.434,-476.358 176.918,-478.996"/>
</g>
<!-- 6&#45;&gt;5 -->
<g id="edge7" class="edge"><title>6&#45;&gt;5</title>
<path fill="none" stroke="grey" stroke-width="2" d="M217.826,-647.697C225.259,-639.305 234.323,-629.07 242.48,-619.861"/>
<polygon fill="grey" stroke="grey" stroke-width="2" points="245.34,-621.911 249.35,-612.104 240.1,-617.27 245.34,-621.911"/>
</g>
<!-- 7 -->
<g id="node8" class="node"><title>7</title>
<path fill="none" stroke="#56d8a9" stroke-width="2" stroke-dasharray="5,2" d="M222.5,-180C222.5,-180 192.5,-180 192.5,-180 186.5,-180 180.5,-174 180.5,-168 180.5,-168 180.5,-156 180.5,-156 180.5,-150 186.5,-144 192.5,-144 192.5,-144 222.5,-144 222.5,-144 228.5,-144 234.5,-150 234.5,-156 234.5,-156 234.5,-168 234.5,-168 234.5,-174 228.5,-180 222.5,-180"/>
<text text-anchor="middle" x="207.5" y="-159.5" font-family="sans" font-size="10.00">split</text>
</g>
<!-- 7&#45;&gt;2 -->
<g id="edge3" class="edge"><title>7&#45;&gt;2</title>
<path fill="none" stroke="grey" stroke-width="2" d="M207.5,-143.697C207.5,-135.983 207.5,-126.712 207.5,-118.112"/>
<polygon fill="grey" stroke="grey" stroke-width="2" points="211,-118.104 207.5,-108.104 204,-118.104 211,-118.104"/>
</g>
<!-- 8 -->
<g id="node9" class="node"><title>8</title>
<path fill="none" stroke="#d85656" stroke-width="2" stroke-dasharray="5,2" d="M217.5,-756C217.5,-756 187.5,-756 187.5,-756 181.5,-756 175.5,-750 175.5,-744 175.5,-744 175.5,-732 175.5,-732 175.5,-726 181.5,-720 187.5,-720 187.5,-720 217.5,-720 217.5,-720 223.5,-720 229.5,-726 229.5,-732 229.5,-732 229.5,-744 229.5,-744 229.5,-750 223.5,-756 217.5,-756"/>
<text text-anchor="middle" x="202.5" y="-735.5" font-family="sans" font-size="10.00">realign</text>
</g>
<!-- 8&#45;&gt;6 -->
<g id="edge8" class="edge"><title>8&#45;&gt;6</title>
<path fill="none" stroke="grey" stroke-width="2" d="M202.5,-719.697C202.5,-711.983 202.5,-702.712 202.5,-694.112"/>
<polygon fill="grey" stroke="grey" stroke-width="2" points="206,-694.104 202.5,-684.104 199,-694.104 206,-694.104"/>
</g>
<!-- 9&#45;&gt;3 -->
<g id="edge4" class="edge"><title>9&#45;&gt;3</title>
<path fill="none" stroke="grey" stroke-width="2" d="M167.949,-359.697C159.266,-351.135 148.637,-340.656 139.152,-331.304"/>
<polygon fill="grey" stroke="grey" stroke-width="2" points="141.427,-328.633 131.849,-324.104 136.512,-333.617 141.427,-328.633"/>
</g>
<!-- 9&#45;&gt;7 -->
<g id="edge10" class="edge"><title>9&#45;&gt;7</title>
<path fill="none" stroke="grey" stroke-width="2" d="M209.252,-359.91C220.053,-350.651 231.697,-338.2 237.5,-324 255.922,-278.919 236.263,-222.091 221.234,-189.415"/>
<polygon fill="grey" stroke="grey" stroke-width="2" points="224.244,-187.595 216.766,-180.09 217.931,-190.62 224.244,-187.595"/>
</g>
<!-- 10&#45;&gt;7 -->
<g id="edge9" class="edge"><title>10&#45;&gt;7</title>
<path fill="none" stroke="grey" stroke-width="2" d="M170.612,-215.697C176.368,-207.474 183.362,-197.483 189.706,-188.421"/>
<polygon fill="grey" stroke="grey" stroke-width="2" points="192.66,-190.304 195.527,-180.104 186.925,-186.29 192.66,-190.304"/>
</g>
<!-- 11 -->
<g id="node12" class="node"><title>11</title>
<path fill="none" stroke="#59d856" stroke-width="2" stroke-dasharray="5,2" d="M266.5,-828C266.5,-828 138.5,-828 138.5,-828 132.5,-828 126.5,-822 126.5,-816 126.5,-816 126.5,-804 126.5,-804 126.5,-798 132.5,-792 138.5,-792 138.5,-792 266.5,-792 266.5,-792 272.5,-792 278.5,-798 278.5,-804 278.5,-804 278.5,-816 278.5,-816 278.5,-822 272.5,-828 266.5,-828"/>
<text text-anchor="middle" x="202.5" y="-813" font-family="sans" font-size="10.00">align</text>
<text text-anchor="middle" x="202.5" y="-802" font-family="sans" font-size="10.00">genomes: H37Rv+CDC1551</text>
</g>
<!-- 11&#45;&gt;8 -->
<g id="edge11" class="edge"><title>11&#45;&gt;8</title>
<path fill="none" stroke="grey" stroke-width="2" d="M202.5,-791.697C202.5,-783.983 202.5,-774.712 202.5,-766.112"/>
<polygon fill="grey" stroke="grey" stroke-width="2" points="206,-766.104 202.5,-756.104 199,-766.104 206,-766.104"/>
</g>
</g>
</svg>
